# xmcd
#
# Track frame offsets: 
#        150
#        13333
#        31273
#        45551
#        64337
#        82263
#        97390
#        107203
#        121399
#        140471
#        155945
#
# Disc length: 2355 seconds
#
# Revision: 5
# Processed by: cddbd v1.5.2PL0 Copyright (c) Steve Scherf et al.
# Submitted via: ExactAudioCopyFreeDBPlugin 1.0
#
DISCID=a509310b
DTITLE=The Black Keys - Attack and Release
DYEAR=2008
DGENRE=Rock
TTITLE0=All You Ever Wanted
TTITLE1=I Got Mine
TTITLE2=Strange Times
TTITLE3=Psychotic Girl
TTITLE4=Lies
TTITLE5=Remember When (Side A)
TTITLE6=Remember When (Side B)
TTITLE7=Same  Old Thing
TTITLE8=So He Won't Break
TTITLE9=Oceans And Streams
TTITLE10=Things Ain't Like They Used To Be
EXTD=YEAR: 2008
EXTT0=
EXTT1=
EXTT2=
EXTT3=
EXTT4=
EXTT5=
EXTT6=
EXTT7=
EXTT8=
EXTT9=
EXTT10=
PLAYORDER=
